#!OML:ASF H:\Dans Jumps\Project 1\Capture day 1\Session 1\subject.ASF
:FULLY-SPECIFIED
:DEGREES
536
root 0.110218 17.8604 -5.07588 17.7913 -1.3295 -1.70134
lowerback 3.2898 0.31152 -1.40828
upperback 5.61448 0.35975 1.47683
thorax 3.92651 0.0872001 2.31397
lowerneck -13.0339 0.266141 0.0430696
upperneck 26.2783 0.420816 -0.240102
head 10.5725 0.164821 -0.0398584
rclavicle 2.13694e-015 4.77083e-015
rhumerus -35.5345 -1.64469 -82.5714
rradius 41.33
rwrist 19.1176
rhand -26.9301 -29.9878
rfingers 7.12502
rthumb -0.352588 -59.9673
lclavicle 2.13694e-015 4.77083e-015
lhumerus -38.8171 -10.6419 90.2251
lradius 48.9861
lwrist 30.9777
lhand -29.316 -7.25242
lfingers 7.12502
lthumb -2.65692 22.7108
rfemur -24.1076 -4.53916 21.6786
rtibia 20.6999
rfoot -12.8657 -2.11872
rtoes 19.9111
lfemur -22.3098 6.96507 -18.9689
ltibia 18.1947
lfoot -10.7136 4.37213
ltoes 8.36578
537
root 0.110567 17.8614 -5.08222 17.7436 -1.36065 -1.75499
lowerback 3.28534 0.302636 -1.33914
upperback 5.6103 0.348241 1.47951
thorax 3.92535 0.0841921 2.27788
lowerneck -13.0342 0.275606 0.0447443
upperneck 26.2747 0.442675 -0.273557
head 10.5714 0.170886 -0.0493189
rclavicle -8.99501e-015 -2.08724e-015
rhumerus -35.592 -1.58049 -82.5836
rradius 41.3537
rwrist 19.1568
rhand -26.9127 -29.9137
rfingers 7.12502
rthumb -0.335738 -59.8931
lclavicle -8.99501e-015 -2.08724e-015
lhumerus -38.8426 -10.6389 90.2483
lradius 48.8597
lwrist 30.7386
lhand -29.1152 -7.24867
lfingers 7.12502
lthumb -2.46295 22.7169
rfemur -24.0295 -4.57287 21.7386
rtibia 20.6031
rfoot -12.8133 -2.0179
rtoes 19.9654
lfemur -22.2682 6.96113 -18.9112
ltibia 18.1923
lfoot -10.7005 4.44752
ltoes 8.39554
538
root 0.11101 17.8621 -5.08849 17.6863 -1.41365 -1.80228
lowerback 3.29214 0.300408 -1.28285
upperback 5.61121 0.34551 1.47755
thorax 3.92271 0.0851077 2.24419
lowerneck -13.0339 0.286247 0.0408412
upperneck 26.2619 0.466672 -0.303842
head 10.5667 0.17777 -0.056421
rclavicle -2.03754e-015 1.59028e-015
rhumerus -35.642 -1.51428 -82.597
rradius 41.3693
rwrist 19.2171
rhand -26.8868 -29.8377
rfingers 7.12502
rthumb -0.310767 -59.8173
lclavicle -2.03754e-015 1.59028e-015
lhumerus -38.8711 -10.6261 90.2654
lradius 48.7444
lwrist 30.4731
lhand -28.9202 -7.22656
lfingers 7.12502
lthumb -2.27465 22.7411
rfemur -23.9507 -4.59697 21.7877
rtibia 20.5215
rfoot -12.7648 -1.9143
rtoes 20.0031
lfemur -22.2096 6.9612 -18.8611
ltibia 18.1874
lfoot -10.6869 4.5335
ltoes 8.41859
539
root 0.111204 17.8627 -5.0948 17.6251 -1.48526 -1.83591
lowerback 3.30037 0.304977 -1.24856
upperback 5.61694 0.3518 1.47011
thorax 3.92385 0.089678 2.21722
lowerneck -13.0483 0.297344 0.045519
upperneck 26.2509 0.490835 -0.339947
head 10.5657 0.184877 -0.067021
rclavicle 4.67144e-015 3.18055e-015
rhumerus -35.6858 -1.45786 -82.6085
rradius 41.3843
rwrist 19.2775
rhand -26.8566 -29.763
rfingers 7.12502
rthumb -0.281632 -59.7426
lclavicle 4.67144e-015 3.18055e-015
lhumerus -38.8971 -10.6224 90.2819
lradius 48.6227
lwrist 30.2039
lhand -28.7639 -7.26895
lfingers 7.12502
lthumb -2.1237 22.7002
rfemur -23.882 -4.60459 21.818
rtibia 20.4627
rfoot -12.7228 -1.81932
rtoes 20.0224
lfemur -22.1418 6.96388 -18.8255
ltibia 18.1787
lfoot -10.6705 4.62329
ltoes 8.4337
540
root 0.111069 17.863 -5.10097 17.565 -1.57034 -1.85677
lowerback 3.30946 0.313574 -1.2373
upperback 5.62235 0.363399 1.45934
thorax 3.92389 0.09606 2.19974
lowerneck -13.0794 0.309403 0.0564143
upperneck 26.2535 0.515904 -0.379729
head 10.573 0.192519 -0.0798544
rclavicle -9.0944e-015 5.56597e-015
rhumerus -35.723 -1.41553 -82.6161
rradius 41.3884
rwrist 19.3319
rhand -26.8297 -29.6864
rfingers 7.12502
rthumb -0.255571 -59.666
lclavicle -9.0944e-015 5.56597e-015
lhumerus -38.9253 -10.6177 90.2955
lradius 48.5067
lwrist 29.9483
lhand -28.6355 -7.27483
lfingers 7.12502
lthumb -1.99965 22.6955
rfemur -23.8291 -4.59709 21.8315
rtibia 20.4305
rfoot -12.6892 -1.73506
rtoes 20.0299
lfemur -22.072 6.97853 -18.8053
ltibia 18.1673
lfoot -10.6528 4.70249
ltoes 8.44438
541
root 0.110486 17.8631 -5.1072 17.511 -1.66233 -1.86464
lowerback 3.31502 0.325009 -1.24947
upperback 5.62624 0.378716 1.44681
thorax 3.9241 0.103409 2.19361
lowerneck -13.1172 0.321401 0.0710577
upperneck 26.2593 0.540023 -0.419607
head 10.5828 0.200065 -0.0934729
rclavicle 3.72721e-015 1.07344e-014
rhumerus -35.7593 -1.38257 -82.6197
rradius 41.397
rwrist 19.3606
rhand -26.7987 -29.6234
rfingers 7.12502
rthumb -0.225675 -59.603
lclavicle 3.72721e-015 1.07344e-014
lhumerus -38.9502 -10.6225 90.3095
lradius 48.3902
lwrist 29.7262
lhand -28.5434 -7.26029
lfingers 7.12502
lthumb -1.91075 22.7109
rfemur -23.7987 -4.57155 21.8286
rtibia 20.4252
rfoot -12.6635 -1.66899
rtoes 20.0319
lfemur -22.0095 7.00321 -18.8003
ltibia 18.1553
lfoot -10.6346 4.76703
ltoes 8.44934
542
root 0.109504 17.863 -5.11338 17.4645 -1.753 -1.86069
lowerback 3.31601 0.336224 -1.28118
upperback 5.62697 0.393696 1.43374
thorax 3.92353 0.109859 2.1979
lowerneck -13.1459 0.331283 0.0753789
upperneck 26.257 0.56002 -0.446185
head 10.5878 0.206317 -0.101114
rclavicle -1.2424e-015 -1.02374e-014
rhumerus -35.7974 -1.36121 -82.6186
rradius 41.4106
rwrist 19.3628
rhand -26.7644 -29.5727
rfingers 7.12502
rthumb -0.192514 -59.5524
lclavicle -1.2424e-015 -1.02374e-014
lhumerus -38.9722 -10.6359 90.3249
lradius 48.2696
lwrist 29.5468
lhand -28.4816 -7.21062
lfingers 7.12502
lthumb -1.85103 22.7611
rfemur -23.7893 -4.53669 21.813
rtibia 20.4438
rfoot -12.6469 -1.6198
rtoes 20.0268
lfemur -21.9587 7.03928 -18.8095
ltibia 18.1458
lfoot -10.6183 4.81037
ltoes 8.4544
